<?xml version="1.0" encoding="iso-8859-1"?>
<!-- Generator: Adobe Illustrator 16.0.0, SVG Export Plug-In . SVG Version: 6.00 Build 0)  -->
<!DOCTYPE svg PUBLIC "-//W3C//DTD SVG 1.1//EN" "http://www.w3.org/Graphics/SVG/1.1/DTD/svg11.dtd">
<svg xmlns="http://www.w3.org/2000/svg" xmlns:xlink="http://www.w3.org/1999/xlink" version="1.1" id="Capa_1" x="0px" y="0px" width="512px" height="512px" viewBox="0 0 241.35 241.349" style="enable-background:new 0 0 241.35 241.349;" xml:space="preserve">
<g>
	<g>
		<path d="M205.38,11.465C205.38,5.143,200.237,0,193.913,0H47.435C41.113,0,35.97,5.143,35.97,11.465v197.322    c0,6.324,5.144,11.467,11.465,11.467h146.479c6.324,0,11.467-5.143,11.467-11.467V11.465z M191.043,205.921H50.307V14.337h140.736    V205.921z" fill="#f06d30"/>
		<path d="M196.741,227.011H43.808c-3.962,0-7.168,3.211-7.168,7.169s3.206,7.169,7.168,7.169h152.933    c3.958,0,7.169-3.211,7.169-7.169S200.699,227.011,196.741,227.011z" fill="#f06d30"/>
		<path d="M72.483,169.369c3.962,0,7.168-3.211,7.168-7.169V67.208c0-3.958-3.206-7.169-7.168-7.169s-7.168,3.211-7.168,7.169    v94.981C65.314,166.158,68.521,169.369,72.483,169.369z" fill="#f06d30"/>
	</g>
</g>
<g>
</g>
<g>
</g>
<g>
</g>
<g>
</g>
<g>
</g>
<g>
</g>
<g>
</g>
<g>
</g>
<g>
</g>
<g>
</g>
<g>
</g>
<g>
</g>
<g>
</g>
<g>
</g>
<g>
</g>
</svg>
